<?xml version="1.0" encoding="UTF-8" standalone="no"?>
<svg width="75px" height="75px" viewBox="0 0 75 75" version="1.1" xmlns="http://www.w3.org/2000/svg" xmlns:xlink="http://www.w3.org/1999/xlink" xmlns:sketch="http://www.bohemiancoding.com/sketch/ns">
    <!-- Generator: Sketch 3.3.1 (12002) - http://www.bohemiancoding.com/sketch -->
    <title>Imported Layers</title>
    <desc>Created with Sketch.</desc>
    <defs></defs>
    <g id="Page-1" stroke="none" stroke-width="1" fill="none" fill-rule="evenodd" sketch:type="MSPage">
        <g id="Desktop-HD" sketch:type="MSArtboardGroup" transform="translate(-683.000000, -5009.000000)" fill="#FFFFFF">
            <g id="ECOLOGY" sketch:type="MSLayerGroup" transform="translate(-39.000000, 4814.000000)">
                <g id="HERO" transform="translate(39.000000, 0.000000)" sketch:type="MSShapeGroup">
                    <g id="Imported-Layers" transform="translate(683.000000, 195.000000)">
                        <path d="M3.906,71.094 L3.906,0.781 L0.781,0.781 L0.781,74.219 L74.219,74.219 L74.219,71.094 L3.906,71.094 Z" id="Fill-1"></path>
                        <path d="M13.75,65.625 C16.719,65.625 19.062,63.281 19.062,60.312 C19.062,58.75 18.438,57.5 17.344,56.406 L25.938,39.219 C26.406,39.375 26.719,39.375 27.188,39.375 C29.844,39.375 31.875,37.5 32.5,35.156 L42.656,35.156 C43.125,37.656 45.312,39.375 47.969,39.375 C50.938,39.375 53.281,37.031 53.281,34.062 C53.281,32.969 52.969,32.031 52.5,31.25 L65.625,17.969 C66.406,18.281 67.188,18.594 68.125,18.594 C71.094,18.594 73.438,16.25 73.438,13.281 C73.438,10.312 71.25,7.812 68.281,7.812 C65.312,7.812 62.969,10.156 62.969,13.125 C62.969,14.062 63.281,14.844 63.594,15.625 L50.312,29.062 C49.688,28.75 48.906,28.594 48.125,28.594 C45.938,28.594 44.062,30 43.125,31.875 L32.344,31.875 C31.562,30 29.688,28.594 27.344,28.594 C24.375,28.594 22.031,30.938 22.031,33.906 C22.031,35.312 22.5,36.562 23.438,37.5 L14.531,55 C14.219,55 13.906,54.844 13.75,54.844 C10.781,54.844 8.438,57.188 8.438,60.156 C8.438,63.281 10.781,65.625 13.75,65.625 L13.75,65.625 Z" id="Fill-2"></path>
                    </g>
                </g>
            </g>
        </g>
    </g>
</svg>