<?xml version="1.0" encoding="UTF-8" standalone="no"?>
<svg width="76px" height="76px" viewBox="0 0 76 76" version="1.1" xmlns="http://www.w3.org/2000/svg" xmlns:xlink="http://www.w3.org/1999/xlink" xmlns:sketch="http://www.bohemiancoding.com/sketch/ns">
    <!-- Generator: Sketch 3.3.1 (12002) - http://www.bohemiancoding.com/sketch -->
    <title>Fill 103</title>
    <desc>Created with Sketch.</desc>
    <defs></defs>
    <g id="Page-1" stroke="none" stroke-width="1" fill="none" fill-rule="evenodd" sketch:type="MSPage">
        <g id="Desktop-HD" sketch:type="MSArtboardGroup" transform="translate(-682.000000, -3652.000000)" fill="#FFFFFF">
            <g id="ADVENTURES" sketch:type="MSLayerGroup" transform="translate(0.000000, 3467.000000)">
                <g id="HERO" sketch:type="MSShapeGroup">
                    <path d="M747.5,217.062 L744.688,202.062 C744.688,196.438 739.688,192.062 733.438,192.062 L730.312,192.062 C729.688,185.812 723.125,185.812 720,185.812 C716.875,185.812 710.312,185.812 709.688,192.062 L706.562,192.062 C700.312,192.062 695.312,196.75 695.312,201.75 L692.5,216.75 C689.375,219.562 682.188,226.438 682.188,229.875 L682.188,248.312 C682.188,252.375 685.312,255.5 689.375,255.5 L693.125,255.5 C694.688,258.312 697.5,260.5 700.625,260.5 L739.375,260.188 C742.5,260.188 745,258.312 746.562,255.812 L750.625,255.812 C754.688,255.812 757.812,252.688 757.812,248.625 L757.812,230.188 C757.812,226.438 750.938,219.875 747.5,217.062 L747.5,217.062 Z M720,188.625 C725.625,188.625 727.188,189.562 727.5,191.75 L712.5,191.75 C712.812,189.875 714.375,188.625 720,188.625 L720,188.625 Z M698.438,202.062 C698.438,198 702.188,194.875 706.562,194.875 L733.438,194.875 C737.812,194.875 741.562,198 741.562,202.062 L744.688,217.375 L744.688,229.25 L735.625,229.25 L735.625,228 C735.625,227.062 735,226.438 734.062,226.438 C733.125,226.438 732.5,227.688 732.5,228.312 L732.5,229.562 L706.875,229.562 L706.875,228.312 C706.875,227.375 706.25,226.75 705.312,226.75 C704.375,226.75 703.75,227.375 703.75,228.312 L703.75,229.562 L695.625,229.562 L695.625,218 L698.438,202.062 Z M689.375,252.375 L689.375,253.938 L689.375,252.375 C687.188,252.375 685.312,250.5 685.312,248.312 L685.312,229.875 C685.312,228.938 688.438,225.188 692.188,221.438 L692.188,252.375 L689.375,252.375 Z M739.375,256.75 L700.625,257.375 C697.812,257.375 695.625,254.875 695.625,251.75 L695.625,233 L703.75,233 L703.75,236.125 C703.75,237.062 704.375,237.688 705.312,237.688 C706.25,237.688 706.875,237.062 706.875,236.125 L706.875,233 L732.5,233 L732.5,236.125 C732.5,237.062 733.125,237.688 734.062,237.688 C735,237.688 735.625,237.062 735.625,236.125 L735.625,233 L744.688,233 L744.688,251.125 C744.688,254.25 742.188,256.75 739.375,256.75 L739.375,256.75 Z M754.688,248.312 C754.688,250.5 752.812,252.375 750.625,252.375 L750.625,253.938 L750.625,252.375 L747.812,252.375 L747.812,221.438 C751.562,225.188 754.688,228.625 754.688,229.875 L754.688,248.312 Z" id="Fill-103"></path>
                </g>
            </g>
        </g>
    </g>
</svg>