<?xml version="1.0" encoding="UTF-8" standalone="no"?>
<svg width="46px" height="61px" viewBox="0 0 46 61" version="1.1" xmlns="http://www.w3.org/2000/svg" xmlns:xlink="http://www.w3.org/1999/xlink" xmlns:sketch="http://www.bohemiancoding.com/sketch/ns">
    <!-- Generator: Sketch 3.3.1 (12002) - http://www.bohemiancoding.com/sketch -->
    <title>Imported Layers</title>
    <desc>Created with Sketch.</desc>
    <defs></defs>
    <g id="Page-1" stroke="none" stroke-width="1" fill="none" fill-rule="evenodd" sketch:type="MSPage">
        <g id="Desktop-HD" sketch:type="MSArtboardGroup" transform="translate(-697.000000, -1874.000000)" fill="#FFFFFF">
            <g id="LOCATION" sketch:type="MSLayerGroup" transform="translate(-39.000000, 1674.000000)">
                <g id="HERO" transform="translate(39.000000, 0.000000)" sketch:type="MSShapeGroup">
                    <path d="M738.92901,234.571429 L739.014286,234.571429 L720,260.5 L700.985714,234.571429 L701.07099,234.571429 C698.825,231.114286 697.528571,226.96341 697.528571,222.471429 C697.528571,210.024562 707.553133,200 720,200 C732.446867,200 742.471429,210.024562 742.471429,222.471429 C742.471429,226.96341 741.175,231.114286 738.92901,234.571429 L738.92901,234.571429 Z M720,202.592857 C709.025876,202.592857 700.121429,211.667857 700.121429,222.818295 C700.121429,226.792857 701.247305,230.596867 703.231705,233.707143 L703.146429,233.707143 L720,257.042857 L736.853571,233.707143 L736.768295,233.707143 C738.757305,230.596867 739.878571,226.792857 739.878571,222.818295 C739.878571,211.667857 730.974124,202.592857 720,202.592857 L720,202.592857 Z M720,231.114286 C715.246429,231.114286 711.357143,227.225 711.357143,222.471429 C711.357143,217.717857 715.246429,213.828571 720,213.828571 C724.753571,213.828571 728.642857,217.717857 728.642857,222.471429 C728.642857,227.225 724.753571,231.114286 720,231.114286 L720,231.114286 Z M713.95,222.471429 C713.95,225.843295 716.628133,228.521429 720,228.521429 C723.371867,228.521429 726.05,225.843295 726.05,222.471429 C726.05,219.099562 723.371867,216.421429 720,216.421429 C716.628133,216.421429 713.95,219.099562 713.95,222.471429 Z" id="Imported-Layers"></path>
                </g>
            </g>
        </g>
    </g>
</svg>