<?xml version="1.0" encoding="UTF-8" standalone="no"?>
<svg width="73px" height="73px" viewBox="0 0 73 73" version="1.1" xmlns="http://www.w3.org/2000/svg" xmlns:xlink="http://www.w3.org/1999/xlink" xmlns:sketch="http://www.bohemiancoding.com/sketch/ns">
    <!-- Generator: Sketch 3.3.1 (12002) - http://www.bohemiancoding.com/sketch -->
    <title>ICON</title>
    <desc>Created with Sketch.</desc>
    <defs></defs>
    <g id="Page-1" stroke="none" stroke-width="1" fill="none" fill-rule="evenodd" sketch:type="MSPage">
        <g id="Desktop-HD" sketch:type="MSArtboardGroup" transform="translate(-680.000000, -6950.000000)" fill="#FFFFFF">
            <g id="ADVENTURES-Copy" sketch:type="MSLayerGroup" transform="translate(0.000000, 6761.000000)">
                <g id="HERO" sketch:type="MSShapeGroup">
                    <g id="ICON" transform="translate(680.000000, 189.000000)">
                        <path d="M34.469,68.531 C27.594,68.531 20.719,65.25 14.625,58.844 C2.125,46.031 2.438,31.188 15.406,18.219 C25.719,7.906 42.125,0.406 54.312,0.406 C60.25,0.406 64.938,2.125 68.219,5.406 C79.156,16.5 69.938,43.688 54.938,58.531 C48.375,65.094 41.5,68.531 34.469,68.531 L34.469,68.531 Z M54.312,3.531 C42.906,3.531 27.438,10.719 17.75,20.406 C2.594,35.562 9,48.375 16.969,56.656 C22.438,62.281 28.531,65.25 34.469,65.25 C40.562,65.25 46.656,62.281 52.594,56.188 C66.5,42.281 75.25,17.125 65.875,7.438 C63.375,4.781 59.312,3.531 54.312,3.531 L54.312,3.531 Z" id="Fill-1"></path>
                        <path d="M3.062,72.594 L0.094,71.812 C3.531,59 16.344,50.562 30.094,41.656 C44.625,32.125 59.781,22.281 65.562,6.031 L68.531,7.125 C62.438,24.312 46.812,34.469 31.812,44.312 C18.688,52.75 6.188,60.875 3.062,72.594 L3.062,72.594 Z" id="Fill-2"></path>
                        <path d="M51.656,28.375 L46.656,4 L49.625,3.375 L54.156,25.25 L71.812,24.938 L71.969,28.062 L51.656,28.375 Z" id="Fill-3"></path>
                        <path d="M65.562,41.656 L38.844,38.219 L31.344,8.219 L34.312,7.438 L41.344,35.406 L66.031,38.688 L65.562,41.656 Z" id="Fill-4"></path>
                        <path d="M59,52.594 L27.281,45.875 L19,16.188 L21.969,15.406 L29.781,43.219 L59.625,49.469 L59,52.594 Z" id="Fill-5"></path>
                        <path d="M45.406,64.938 L18.688,51.5 L9.312,27.125 L12.281,26.031 L21.188,49.156 L46.812,62.125 L45.406,64.938 Z" id="Fill-6"></path>
                    </g>
                </g>
            </g>
        </g>
    </g>
</svg>