<?xml version="1.0" encoding="UTF-8" standalone="no"?>
<svg width="181px" height="43px" viewBox="0 0 181 43" version="1.1" xmlns="http://www.w3.org/2000/svg" xmlns:xlink="http://www.w3.org/1999/xlink" xmlns:sketch="http://www.bohemiancoding.com/sketch/ns">
    <!-- Generator: Sketch 3.3.1 (12002) - http://www.bohemiancoding.com/sketch -->
    <title>LOGO</title>
    <desc>Created with Sketch.</desc>
    <defs></defs>
    <g id="Page-1" stroke="none" stroke-width="1" fill="none" fill-rule="evenodd" sketch:type="MSPage">
        <g id="Desktop-HD" sketch:type="MSArtboardGroup" transform="translate(-51.000000, -100.000000)">
            <g id="MAIN" sketch:type="MSLayerGroup">
                <g id="LOGO" transform="translate(51.000000, 100.000000)" sketch:type="MSShapeGroup">
                    <g id="BELIZE-+-Line-+-Line-Copy" transform="translate(4.000000, 34.000000)">
                        <path d="M0.5,4.5 L35.5,4.5" id="Line" stroke="#FFFFFF" stroke-linecap="square"></path>
                        <path d="M128.5,4.5 L150.5,4.5" id="Line-Copy" stroke="#FFFFFF" stroke-linecap="square"></path>
                        <path d="M46.3199992,9 L46.3199992,0.402 L49.0619992,0.402 C49.5900019,0.402 50.0449973,0.45399948 50.4269992,0.558 C50.8090011,0.66200052 51.122998,0.80999904 51.3689992,1.002 C51.6150005,1.19400096 51.7969986,1.42899861 51.9149992,1.707 C52.0329998,1.98500139 52.0919992,2.29799826 52.0919992,2.646 C52.0919992,2.85800106 52.0589996,3.06199902 51.9929992,3.258 C51.9269989,3.45400098 51.8269999,3.63599916 51.6929992,3.804 C51.5589986,3.97200084 51.3910002,4.12199934 51.1889992,4.254 C50.9869982,4.38600066 50.7500006,4.49399958 50.4779992,4.578 C51.1060024,4.70200062 51.5799976,4.92799836 51.8999992,5.256 C52.2200008,5.58400164 52.3799992,6.01599732 52.3799992,6.552 C52.3799992,6.91600182 52.3129999,7.2479985 52.1789992,7.548 C52.0449986,7.8480015 51.8490005,8.10599892 51.5909992,8.322 C51.3329979,8.53800108 51.0170011,8.70499941 50.6429992,8.823 C50.2689974,8.94100059 49.8420016,9 49.3619992,9 L46.3199992,9 Z M47.4839992,5.082 L47.4839992,8.076 L49.3439992,8.076 C49.6760009,8.076 49.960998,8.03800038 50.1989992,7.962 C50.4370004,7.88599962 50.6329985,7.77900069 50.7869992,7.641 C50.941,7.50299931 51.0539989,7.33900095 51.1259992,7.149 C51.1979996,6.95899905 51.2339992,6.75000114 51.2339992,6.522 C51.2339992,6.07799778 51.0770008,5.72700129 50.7629992,5.469 C50.4489977,5.21099871 49.9740024,5.082 49.3379992,5.082 L47.4839992,5.082 Z M47.4839992,4.254 L49.0199992,4.254 C49.3480009,4.254 49.631998,4.21800036 49.8719992,4.146 C50.1120004,4.07399964 50.3109984,3.97400064 50.4689992,3.846 C50.627,3.71799936 50.7439989,3.56300091 50.8199992,3.381 C50.8959996,3.19899909 50.9339992,3.00000108 50.9339992,2.784 C50.9339992,2.27999748 50.7820008,1.91000118 50.4779992,1.674 C50.1739977,1.43799882 49.7020024,1.32 49.0619992,1.32 L47.4839992,1.32 L47.4839992,4.254 Z M66.5819995,0.402 L66.5819995,1.35 L62.4539995,1.35 L62.4539995,4.206 L65.7959995,4.206 L65.7959995,5.118 L62.4539995,5.118 L62.4539995,8.052 L66.5819995,8.052 L66.5819995,9 L61.2839995,9 L61.2839995,0.402 L66.5819995,0.402 Z M76.6199998,8.022 L80.3399998,8.022 L80.3399998,9 L75.4559998,9 L75.4559998,0.402 L76.6199998,0.402 L76.6199998,8.022 Z M90.2040001,9 L89.0400001,9 L89.0400001,0.402 L90.2040001,0.402 L90.2040001,9 Z M105.696,0.402 L105.696,0.834 C105.696,0.97000068 105.654001,1.0979994 105.57,1.218 L100.704,8.052 L105.612,8.052 L105.612,9 L99.1800004,9 L99.1800004,8.544 C99.1800004,8.4239994 99.218,8.31000054 99.2940004,8.202 L104.166,1.35 L99.4080004,1.35 L99.4080004,0.402 L105.696,0.402 Z M119.694001,0.402 L119.694001,1.35 L115.566001,1.35 L115.566001,4.206 L118.908001,4.206 L118.908001,5.118 L115.566001,5.118 L115.566001,8.052 L119.694001,8.052 L119.694001,9 L114.396001,9 L114.396001,0.402 L119.694001,0.402 Z" id="BELIZE" fill="#FFFFFF"></path>
                    </g>
                    <path d="M7.58398438,26.234375 C6.86132451,26.234375 6.15332378,26.1074231 5.45996094,25.8535156 C4.7665981,25.5996081 4.15136987,25.2504905 3.61425781,24.8061523 C3.07714575,24.3618142 2.61572458,23.8369171 2.22998047,23.2314453 C1.84423635,22.6259735 1.52441533,21.976566 1.27050781,21.2832031 C0.7529271,19.8476491 0.494140625,18.3779372 0.494140625,16.8740234 C0.494140625,15.3701097 0.613768335,14.0566462 0.853027344,12.9335938 C1.09228635,11.8105413 1.45116948,10.7509815 1.9296875,9.75488281 C2.40820552,8.75878408 2.97948887,7.86523833 3.64355469,7.07421875 C4.30762051,6.28319917 5.04491782,5.60937778 5.85546875,5.05273438 C7.52539897,3.91991621 9.33202153,3.35351562 11.2753906,3.35351562 C13.3457135,3.35351562 15.3037017,3.62695039 17.1494141,4.17382812 L17.7060547,4.33496094 L16.8710938,8.67089844 L15.0107422,8.67089844 L14.6884766,6.01953125 C13.9658167,5.39452813 12.7109464,5.08203125 10.9238281,5.08203125 C9.17577251,5.08203125 7.70117788,5.74608711 6.5,7.07421875 C5.47460425,8.19727124 4.69824482,9.71092798 4.17089844,11.6152344 C3.75097446,13.1289138 3.54101562,14.6913982 3.54101562,16.3027344 C3.54101562,18.5488394 3.94628501,20.4335861 4.75683594,21.9570312 C5.67480928,23.6660242 6.97850718,24.5205078 8.66796875,24.5205078 C10.6308692,24.5205078 12.0566362,24.061528 12.9453125,23.1435547 L13.7802734,17.3574219 L10.3525391,17.1083984 L10.5429688,15.4091797 L17.0175781,15.4091797 L15.6992188,24.6230469 C15.4160142,24.6523439 15.1328139,24.7109371 14.8496094,24.7988281 L12.59375,25.4726562 C10.8359287,25.9804713 9.16602354,26.234375 7.58398438,26.234375 L7.58398438,26.234375 Z M23.9169922,24.3740234 C24.2783221,24.3740234 24.8056606,24.051761 25.4990234,23.4072266 L25.953125,24.1689453 C25.7578115,24.5205096 25.4306664,24.8720686 24.9716797,25.2236328 C24.0244093,25.936527 23.2163119,26.2929688 22.5473633,26.2929688 C21.8784146,26.2929688 21.4096693,26.1416031 21.1411133,25.8388672 C20.8725573,25.5361313 20.7382812,25.0283239 20.7382812,24.3154297 C20.7382812,23.9345684 20.7675778,23.5585956 20.8261719,23.1875 L23.5214844,4.29101562 L21.7197266,3.66113281 L22.0273438,2.4453125 L25.8652344,1.83007812 L26.5683594,2.22558594 L23.609375,23.2607422 C23.5019526,24.0029334 23.6044906,24.3740234 23.9169922,24.3740234 L23.9169922,24.3740234 Z M32.1494141,25.8388672 C29.9228404,24.8915968 28.8095703,22.7138842 28.8095703,19.3056641 C28.8095703,16.6982292 29.5663987,14.3545026 31.0800781,12.2744141 C32.0859425,10.8974541 33.3212817,9.93554961 34.7861328,9.38867188 C35.5185583,9.10546733 36.321773,8.96386719 37.1958008,8.96386719 C38.0698286,8.96386719 38.8632777,9.11523286 39.5761719,9.41796875 C40.2890661,9.72070464 40.8945288,10.1601534 41.3925781,10.7363281 C42.4179739,11.937506 42.9306641,13.6415905 42.9306641,15.8486328 C42.9306641,18.5537245 42.1738357,20.9316304 40.6601562,22.9824219 C39.6445262,24.3496162 38.4043042,25.3164034 36.9394531,25.8828125 C36.2070276,26.1562514 35.403813,26.2929688 34.5297852,26.2929688 C33.6557573,26.2929688 32.8623083,26.1416031 32.1494141,25.8388672 L32.1494141,25.8388672 Z M33.7167969,24.1542969 C34.1171895,24.388673 34.5908176,24.5058594 35.1376953,24.5058594 C35.684573,24.5058594 36.1850563,24.3764661 36.6391602,24.1176758 C37.093264,23.8588854 37.4985334,23.5073264 37.8549805,23.0629883 C38.2114276,22.6186501 38.5214831,22.1035186 38.7851562,21.5175781 C39.5078161,19.8671792 39.8691406,18.0068463 39.8691406,15.9365234 C39.8691406,13.4169796 39.2441469,11.8007848 37.9941406,11.0878906 C37.593748,10.8632801 37.1201199,10.7509766 36.5732422,10.7509766 C36.0263645,10.7509766 35.5258812,10.8803698 35.0717773,11.1391602 C34.6176735,11.3979505 34.2124041,11.7495095 33.855957,12.1938477 C33.4995099,12.6381858 33.1894544,13.1533174 32.9257812,13.7392578 C32.2031214,15.3896567 31.8417969,17.2499896 31.8417969,19.3203125 C31.8417969,21.8398563 32.4667906,23.4511684 33.7167969,24.1542969 L33.7167969,24.1542969 Z M57.0224609,8.96386719 C58.2724672,8.96386719 58.8974609,9.94041992 58.8974609,11.8935547 C58.8974609,13.3681714 58.0869222,15.4970564 56.4658203,18.2802734 L54.6347656,21.2832031 L51.2070312,26.1171875 L48.9951172,26.2929688 L46.7392578,11.8642578 C46.6025384,11.1318323 46.2607449,10.8828113 45.7138672,11.1171875 C45.5673821,11.1855472 45.4111336,11.273437 45.2451172,11.3808594 L44.8203125,10.5019531 C45.1621111,9.96484106 45.7724565,9.51562681 46.6513672,9.15429688 C46.9736344,9.02734312 47.3203106,8.96386719 47.6914062,8.96386719 C48.6777393,8.96386719 49.2783192,9.34960552 49.4931641,10.1210938 C49.5615238,10.3652356 49.6103514,10.6484359 49.6396484,10.9707031 L50.6210938,20.7998047 L50.796875,23.5097656 L52.4667969,21.0488281 L53.609375,19.1591797 C54.8007872,17.1279195 55.611326,15.0185656 56.0410156,12.8310547 C56.1093753,12.4208964 56.0581063,11.9765649 55.887207,11.4980469 C55.7163077,11.0195289 55.6308594,10.6044939 55.6308594,10.2529297 C55.6308594,9.90136543 55.7602526,9.59863408 56.019043,9.34472656 C56.2778333,9.09081904 56.6123026,8.96386719 57.0224609,8.96386719 L57.0224609,8.96386719 Z M67.2324219,24.2568359 C69.0195402,24.2568359 70.6796798,23.5439524 72.2128906,22.1181641 L72.8867188,23.3339844 C72.3984351,24.0371129 71.6464895,24.6718722 70.6308594,25.2382812 C69.4101501,25.9414098 68.2211972,26.2929688 67.0639648,26.2929688 C65.9067325,26.2929688 64.957035,26.1074237 64.2148438,25.7363281 C62.7499927,25.0136683 61.7832055,23.8173912 61.3144531,22.1474609 C61.1191396,21.4248011 61.0214844,20.8535177 61.0214844,20.4335938 C61.0214844,20.0136698 61.0288085,19.5571314 61.043457,19.0639648 C61.0581055,18.5707983 61.1704091,17.8798873 61.3803711,16.9912109 C61.5903331,16.1025346 61.8808575,15.2602579 62.2519531,14.4643555 C62.6230487,13.6684531 63.0649388,12.9335971 63.5776367,12.2597656 C64.0903346,11.5859341 64.6640593,11.0048853 65.2988281,10.5166016 C66.6464911,9.48144014 68.1015547,8.96386719 69.6640625,8.96386719 C71.6953227,8.96386719 72.9941378,9.7011645 73.5605469,11.1757812 C73.736329,11.6250022 73.8242188,12.166989 73.8242188,12.8017578 C73.8242188,13.4365266 73.6484393,14.0639617 73.296875,14.684082 C72.9453107,15.3042023 72.486331,15.858396 71.9199219,16.3466797 C71.3535128,16.8349634 70.7138708,17.2573224 70.0009766,17.6137695 C69.2880824,17.9702166 68.5703161,18.2656238 67.8476562,18.5 C66.3925708,18.9882837 65.1377006,19.2421874 64.0830078,19.2617188 C64.0634765,19.4667979 64.0537109,19.6572257 64.0537109,19.8330078 C64.0537109,20.0087899 64.0585937,20.2187488 64.0683594,20.4628906 C64.078125,20.7070325 64.1269527,21.0146466 64.2148438,21.3857422 C64.3027348,21.7568378 64.4248039,22.1157209 64.5810547,22.4624023 C64.7373055,22.8090838 64.9374988,23.1142565 65.1816406,23.3779297 C65.7285184,23.9638701 66.4121053,24.2568359 67.2324219,24.2568359 L67.2324219,24.2568359 Z M64.15625,17.6503906 C65.5820384,17.5820309 66.9882743,17.1425822 68.375,16.3320312 C69.3613331,15.7656222 70.064451,15.0722697 70.484375,14.2519531 C70.7089855,13.8320292 70.8212891,13.3046907 70.8212891,12.6699219 C70.8212891,12.0351531 70.6503923,11.5444353 70.3085938,11.1977539 C69.9667952,10.8510725 69.5346706,10.6777344 69.012207,10.6777344 C68.4897435,10.6777344 68.0185568,10.7924793 67.5986328,11.0219727 C67.1787088,11.251466 66.8002947,11.5566387 66.4633789,11.9375 C66.1264632,12.3183613 65.8237318,12.7529272 65.5551758,13.2412109 C65.2866198,13.7294946 65.0546885,14.2324193 64.859375,14.75 C64.5078107,15.7265674 64.2734381,16.6933546 64.15625,17.6503906 L64.15625,17.6503906 Z M78.921875,11.9082031 L77.4570312,11.0292969 L77.7207031,9.72558594 L81.265625,8.96386719 L81.96875,9.31542969 L81.6611328,12.640625 C82.3837927,11.1953053 83.5068283,10.1113317 85.0302734,9.38867188 C85.6162139,9.11523301 86.1240213,8.97851562 86.5537109,8.97851562 C87.2959021,8.97851562 87.7304681,9.04199155 87.8574219,9.16894531 L87.2128906,12.2158203 C86.9394518,12.0791009 86.531741,12.0107422 85.9897461,12.0107422 C85.4477512,12.0107422 84.9790059,12.0693354 84.5834961,12.1865234 C84.1879863,12.3037115 83.7949238,12.4941393 83.4042969,12.7578125 C82.5156206,13.37305 81.8125026,14.2910095 81.2949219,15.5117188 L79.9912109,26 L77.1347656,26 L78.921875,11.9082031 Z M94.2444938,0.803849757 C95.1331159,1.03821162 95.8117786,1.58016531 96.2805023,2.42972708 C96.6613404,3.1230476 96.8517565,3.86274115 96.8517565,4.64882991 C96.8517565,5.43491867 96.7711958,6.11602263 96.610072,6.69216222 C96.4489483,7.2683018 96.2292373,7.80049056 95.9509326,8.28874445 C95.6726279,8.77699834 95.3479439,9.22618518 94.976871,9.63631845 C94.605798,10.0464517 94.2103183,10.4175191 93.7904199,10.7495317 C93.0189788,11.3549666 92.13037,11.8676255 91.124567,12.2875238 L90.5240178,11.2621958 L90.5533128,10.9399498 C91.324754,10.6860578 92.0327115,10.0757496 92.6772066,9.10900688 C93.3217018,8.14226418 93.6439445,7.14624119 93.6439445,6.12090802 C93.6439445,5.49594304 93.5316478,4.99793155 93.307051,4.62685859 C92.9164479,4.00189361 92.4916734,3.66012102 92.0327147,3.60153055 L92.1059524,3.00098127 L94.2444938,0.803849757 Z M98.5361328,23.2167969 C99.2001986,23.6757835 100.088862,24.0078115 101.202148,24.2128906 C101.602541,24.2812503 101.990721,24.3154297 102.366699,24.3154297 C102.742678,24.3154297 103.101561,24.2958986 103.443359,24.2568359 C103.785158,24.2177732 104.102538,24.1250007 104.395508,23.9785156 C105.049808,23.6562484 105.376953,23.065434 105.376953,22.2060547 C105.376953,21.2001903 104.834966,20.2578169 103.750977,19.3789062 C103.438475,19.1249987 103.138185,18.8930675 102.850098,18.6831055 C102.56201,18.4731435 102.242189,18.2094742 101.890625,17.8920898 C101.539061,17.5747054 101.20215,17.2060568 100.879883,16.7861328 C100.11816,15.7705027 99.7373047,14.8208052 99.7373047,13.9370117 C99.7373047,13.0532182 99.8911117,12.3183623 100.19873,11.7324219 C100.506349,11.1464814 100.918943,10.6484396 101.436523,10.2382812 C102.520513,9.38866763 103.833977,8.96386719 105.376953,8.96386719 C106.529303,8.96386719 107.413083,9.03955002 108.02832,9.19091797 C108.643558,9.34228591 109.009765,9.44726533 109.126953,9.50585938 L108.570312,11.9521484 C108.316405,11.5810528 107.632818,11.2636732 106.519531,11 C106.128904,10.9023433 105.740725,10.8535156 105.35498,10.8535156 C104.969236,10.8535156 104.625002,10.8828122 104.322266,10.9414062 C104.01953,11.0000003 103.741212,11.1074211 103.487305,11.2636719 C102.833005,11.6640645 102.505859,12.2988238 102.505859,13.1679688 C102.505859,14.2421929 103.282219,15.3701113 104.834961,16.5517578 C105.83106,17.323246 106.529295,17.9628881 106.929688,18.4707031 C107.720707,19.4960989 108.116211,20.4702102 108.116211,21.3930664 C108.116211,22.3159226 107.957521,23.0678682 107.640137,23.6489258 C107.322752,24.2299834 106.89551,24.7158184 106.358398,25.1064453 C105.284174,25.8974649 103.936532,26.2929688 102.31543,26.2929688 C100.87011,26.2929688 99.649419,26.1123065 98.6533203,25.7509766 C98.3505844,25.6435542 98.1357428,25.5361333 98.0087891,25.4287109 L98.5361328,23.2167969 Z M126.456055,16.15625 L125.269531,16.1855469 L123.672852,16.1855469 L122.75,24.3007812 L125.459961,24.7255859 L125.342773,26 L117.959961,26 L118.091797,24.7402344 L119.966797,24.3007812 L122.325195,5.40429688 L120.376953,5.06738281 L120.552734,3.58789062 L123.277344,3.58789062 L127.657227,3.35351562 C130.118176,3.35351562 131.94433,3.7734333 133.135742,4.61328125 C134.366217,5.48242622 134.981445,6.83006899 134.981445,8.65625 C134.981445,10.3554772 134.517583,11.8349546 133.589844,13.0947266 C132.603511,14.4228582 131.226571,15.3310522 129.458984,15.8193359 C130.386723,16.415042 131.182614,17.6210847 131.84668,19.4375 C132.598637,21.5078229 133.184568,22.8115208 133.604492,23.3486328 C134.024416,23.8857449 134.407713,24.2226556 134.754395,24.359375 C135.101076,24.4960944 135.396483,24.5644531 135.640625,24.5644531 L136.094727,24.5644531 L136.036133,26.0146484 L132.725586,25.9853516 C132.188474,25.9853516 131.553715,25.2089921 130.821289,23.65625 C130.557616,23.0800752 130.279298,22.4160194 129.986328,21.6640625 L129.166016,19.5546875 C128.296871,17.2890512 127.393559,16.15625 126.456055,16.15625 L126.456055,16.15625 Z M123.892578,14.4423828 C124.595707,14.4814455 125.264645,14.5009766 125.899414,14.5009766 C127.432625,14.5009766 128.550778,14.3398454 129.253906,14.0175781 C131.128916,13.1484332 132.066406,11.4638797 132.066406,8.96386719 C132.066406,7.5771415 131.753909,6.60547153 131.128906,6.04882812 C130.425778,5.41405933 129.190439,5.09667969 127.422852,5.09667969 C126.866208,5.09667969 126.094731,5.1894522 125.108398,5.375 L123.892578,14.4423828 Z M144.444336,24.2568359 C146.231454,24.2568359 147.891594,23.5439524 149.424805,22.1181641 L150.098633,23.3339844 C149.610349,24.0371129 148.858404,24.6718722 147.842773,25.2382812 C146.622064,25.9414098 145.433111,26.2929688 144.275879,26.2929688 C143.118647,26.2929688 142.168949,26.1074237 141.426758,25.7363281 C139.961907,25.0136683 138.99512,23.8173912 138.526367,22.1474609 C138.331054,21.4248011 138.233398,20.8535177 138.233398,20.4335938 C138.233398,20.0136698 138.240723,19.5571314 138.255371,19.0639648 C138.27002,18.5707983 138.382323,17.8798873 138.592285,16.9912109 C138.802247,16.1025346 139.092772,15.2602579 139.463867,14.4643555 C139.834963,13.6684531 140.276853,12.9335971 140.789551,12.2597656 C141.302249,11.5859341 141.875973,11.0048853 142.510742,10.5166016 C143.858405,9.48144014 145.313469,8.96386719 146.875977,8.96386719 C148.907237,8.96386719 150.206052,9.7011645 150.772461,11.1757812 C150.948243,11.6250022 151.036133,12.166989 151.036133,12.8017578 C151.036133,13.4365266 150.860353,14.0639617 150.508789,14.684082 C150.157225,15.3042023 149.698245,15.858396 149.131836,16.3466797 C148.565427,16.8349634 147.925785,17.2573224 147.212891,17.6137695 C146.499996,17.9702166 145.78223,18.2656238 145.05957,18.5 C143.604485,18.9882837 142.349615,19.2421874 141.294922,19.2617188 C141.275391,19.4667979 141.265625,19.6572257 141.265625,19.8330078 C141.265625,20.0087899 141.270508,20.2187488 141.280273,20.4628906 C141.290039,20.7070325 141.338867,21.0146466 141.426758,21.3857422 C141.514649,21.7568378 141.636718,22.1157209 141.792969,22.4624023 C141.94922,22.8090838 142.149413,23.1142565 142.393555,23.3779297 C142.940432,23.9638701 143.624019,24.2568359 144.444336,24.2568359 L144.444336,24.2568359 Z M141.368164,17.6503906 C142.793952,17.5820309 144.200188,17.1425822 145.586914,16.3320312 C146.573247,15.7656222 147.276365,15.0722697 147.696289,14.2519531 C147.9209,13.8320292 148.033203,13.3046907 148.033203,12.6699219 C148.033203,12.0351531 147.862306,11.5444353 147.520508,11.1977539 C147.178709,10.8510725 146.746585,10.6777344 146.224121,10.6777344 C145.701658,10.6777344 145.230471,10.7924793 144.810547,11.0219727 C144.390623,11.251466 144.012209,11.5566387 143.675293,11.9375 C143.338377,12.3183613 143.035646,12.7529272 142.76709,13.2412109 C142.498534,13.7294946 142.266603,14.2324193 142.071289,14.75 C141.719725,15.7265674 141.485352,16.6933546 141.368164,17.6503906 L141.368164,17.6503906 Z M159.839844,24.2568359 C161.626962,24.2568359 163.287102,23.5439524 164.820312,22.1181641 L165.494141,23.3339844 C165.005857,24.0371129 164.253911,24.6718722 163.238281,25.2382812 C162.017572,25.9414098 160.828619,26.2929688 159.671387,26.2929688 C158.514154,26.2929688 157.564457,26.1074237 156.822266,25.7363281 C155.357415,25.0136683 154.390627,23.8173912 153.921875,22.1474609 C153.726562,21.4248011 153.628906,20.8535177 153.628906,20.4335938 C153.628906,20.0136698 153.63623,19.5571314 153.650879,19.0639648 C153.665527,18.5707983 153.777831,17.8798873 153.987793,16.9912109 C154.197755,16.1025346 154.488279,15.2602579 154.859375,14.4643555 C155.230471,13.6684531 155.672361,12.9335971 156.185059,12.2597656 C156.697756,11.5859341 157.271481,11.0048853 157.90625,10.5166016 C159.253913,9.48144014 160.708977,8.96386719 162.271484,8.96386719 C164.302745,8.96386719 165.60156,9.7011645 166.167969,11.1757812 C166.343751,11.6250022 166.431641,12.166989 166.431641,12.8017578 C166.431641,13.4365266 166.255861,14.0639617 165.904297,14.684082 C165.552733,15.3042023 165.093753,15.858396 164.527344,16.3466797 C163.960935,16.8349634 163.321293,17.2573224 162.608398,17.6137695 C161.895504,17.9702166 161.177738,18.2656238 160.455078,18.5 C158.999993,18.9882837 157.745122,19.2421874 156.69043,19.2617188 C156.670898,19.4667979 156.661133,19.6572257 156.661133,19.8330078 C156.661133,20.0087899 156.666016,20.2187488 156.675781,20.4628906 C156.685547,20.7070325 156.734375,21.0146466 156.822266,21.3857422 C156.910157,21.7568378 157.032226,22.1157209 157.188477,22.4624023 C157.344727,22.8090838 157.544921,23.1142565 157.789062,23.3779297 C158.33594,23.9638701 159.019527,24.2568359 159.839844,24.2568359 L159.839844,24.2568359 Z M156.763672,17.6503906 C158.18946,17.5820309 159.595696,17.1425822 160.982422,16.3320312 C161.968755,15.7656222 162.671873,15.0722697 163.091797,14.2519531 C163.316407,13.8320292 163.428711,13.3046907 163.428711,12.6699219 C163.428711,12.0351531 163.257814,11.5444353 162.916016,11.1977539 C162.574217,10.8510725 162.142092,10.6777344 161.619629,10.6777344 C161.097165,10.6777344 160.625979,10.7924793 160.206055,11.0219727 C159.786131,11.251466 159.407717,11.5566387 159.070801,11.9375 C158.733885,12.3183613 158.431154,12.7529272 158.162598,13.2412109 C157.894042,13.7294946 157.66211,14.2324193 157.466797,14.75 C157.115233,15.7265674 156.88086,16.6933546 156.763672,17.6503906 L156.763672,17.6503906 Z M171.69043,11.1757812 L169.654297,11.1757812 L169.874023,10.0771484 L172.056641,9.16894531 L172.232422,8.12890625 C172.515626,6.34178794 173.272455,4.78906909 174.50293,3.47070312 C175.713873,2.18163418 177.002923,1.53710938 178.370117,1.53710938 C179.346685,1.53710938 180.118161,1.66406123 180.68457,1.91796875 L179.820312,4.37890625 L179.483398,4.14453125 C178.995115,3.83202969 178.487307,3.67578125 177.959961,3.67578125 C177.432615,3.67578125 177.022462,3.77831929 176.729492,3.98339844 C176.436522,4.18847759 176.182618,4.47167788 175.967773,4.83300781 C175.547849,5.51660498 175.254884,6.50292324 175.088867,7.79199219 L174.927734,9.08105469 L178.370117,9.08105469 L178.135742,11.1757812 L174.664062,11.1757812 L172.701172,26.8642578 C172.447264,28.8369239 171.807622,30.4335876 170.782227,31.6542969 C169.747065,32.8945375 168.428719,33.5146484 166.827148,33.5146484 C165.928706,33.5146484 165.230471,33.4511725 164.732422,33.3242188 L165.508789,30.8632812 C166.436528,31.2343769 167.242184,31.4199219 167.925781,31.4199219 C168.765629,31.4199219 169.346678,30.2334103 169.668945,27.8603516 L171.69043,11.1757812 Z" id="Glover’s-Reef" fill="#FFFFFF"></path>
                </g>
            </g>
        </g>
    </g>
</svg>